<svg xmlns="http://www.w3.org/2000/svg" width="400" height="225.376" viewBox="0 0 400 225.376">
  <path id="Android" d="M292.361,168.344a16.658,16.658,0,1,1,16.654-16.658,16.658,16.658,0,0,1-16.654,16.658m-184.1,0a16.658,16.658,0,1,1,16.654-16.658,16.658,16.658,0,0,1-16.654,16.658M298.334,68.013,331.621,10.36a6.927,6.927,0,1,0-11.993-6.934L285.92,61.808a209.252,209.252,0,0,0-171.224,0L80.992,3.426A6.926,6.926,0,1,0,69,10.35l33.29,57.663C45.126,99.1,6.029,156.969.31,225.338h400C394.585,156.969,355.491,99.1,298.334,68.013" transform="translate(-0.31 0.038)" fill="#3ddc84"/>
</svg>
