<?xml version="1.0" encoding="UTF-8"?>
<svg id="Layer_2" xmlns="http://www.w3.org/2000/svg" xmlns:xlink="http://www.w3.org/1999/xlink" viewBox="0 0 399.97 399.97">
  <defs>
    <style>
      .cls-1 {
        fill: url(#linear-gradient);
      }

      .cls-2 {
        fill: #f8f8f8;
      }
    </style>
    <linearGradient id="linear-gradient" x1="199.98" y1="1126.44" x2="199.98" y2="729.27" gradientTransform="translate(0 -729.27)" gradientUnits="userSpaceOnUse">
      <stop offset="0" stop-color="#111"/>
      <stop offset="1" stop-color="#333"/>
    </linearGradient>
  </defs>
  <g id="Layer_1-2" data-name="Layer_1">
    <g id="Layer_2-2" data-name="Layer_2">
      <g id="UK-US">
        <path class="cls-1" d="M220.85,0h84.12c8.78.16,17.55.94,26.22,2.31,8.27,1.44,16.27,4.11,23.75,7.92,7.51,3.77,14.36,8.72,20.29,14.68,5.92,5.9,10.87,12.69,14.68,20.12,3.76,7.54,6.37,15.6,7.75,23.92,1.45,8.61,2.22,17.33,2.31,26.06v209.96c-.1,8.79-.87,17.56-2.31,26.22-1.38,8.26-3.99,16.27-7.75,23.75-7.61,15.1-19.87,27.35-34.97,34.97-7.48,3.76-15.49,6.37-23.75,7.75-8.67,1.46-17.44,2.23-26.22,2.31H95.17c-8.73-.09-17.45-.86-26.06-2.31-8.32-1.35-16.39-3.96-23.92-7.75-7.43-3.81-14.22-8.76-20.12-14.68-5.96-5.93-10.91-12.78-14.68-20.29-3.81-7.48-6.48-15.48-7.92-23.75-1.41-8.68-2.24-17.44-2.47-26.22V95.17c.23-8.73,1.05-17.44,2.47-26.06,1.44-8.32,4.1-16.38,7.92-23.92,7.69-14.94,19.86-27.11,34.8-34.8,7.52-3.85,15.59-6.52,23.92-7.92,8.62-1.42,17.33-2.25,26.06-2.47h125.68"/>
        <path id="_tv" class="cls-2" d="M112.49,150.26c-.41-8.43,2.42-16.69,7.92-23.09,5.54-6.65,13.48-10.86,22.1-11.71.67,8.68-2.11,17.28-7.75,23.92-5.26,6.97-13.53,11.02-22.27,10.89ZM153.72,195.28c.24-11.71,6.47-22.48,16.49-28.53-6.31-8.94-16.44-14.43-27.38-14.84-12.37,0-22.76,7.09-28.7,7.09s-14.84-6.76-24.58-6.6c-12.91.42-24.67,7.54-31.01,18.8-13.19,22.76-3.46,56.74,9.4,75.21,6.27,9.24,13.85,19.3,23.75,18.97,9.9-.33,13.03-6.1,24.41-6.1s14.68,6.1,24.58,5.94c9.9-.16,16.49-9.24,23.09-18.47,4.43-6.49,7.88-13.61,10.23-21.11-12.25-5.11-20.25-17.07-20.29-30.35ZM326.57,159.49l-26.06,84.12h0l-25.89-84.12h-22.43l36.95,104.4h22.1l36.95-104.73-21.61.33ZM220.85,134.42h-20.78v25.07h-15.34v16.49h15.34v60.86c0,20.12,8.08,28.2,28.86,28.2,3.99-.03,7.96-.41,11.88-1.15v-16.49h-7.09c-8.91,0-12.86-4.29-12.86-13.36v-58.06h20.12v-16.49h-20.12v-25.07Z"/>
      </g>
    </g>
  </g>
</svg>