<?xml version="1.0" encoding="utf-8"?>
<!-- Generator: Adobe Illustrator 27.3.1, SVG Export Plug-In . SVG Version: 6.00 Build 0)  -->
<svg version="1.1" id="Layer_1" xmlns="http://www.w3.org/2000/svg" xmlns:xlink="http://www.w3.org/1999/xlink" x="0px" y="0px"
	 viewBox="0 0 942 296" style="enable-background:new 0 0 942 296;" xml:space="preserve">
<style type="text/css">
	.st0{fill:#FFFFFF;}
	.st1{fill:#E42527;}
</style>
<g>
	<g>
		<path d="M389.7,140.8h28.8L457,255.7h-23l-8.6-26.5h-45.1l-8.3,26.5h-21.1L389.7,140.8z M420.5,213.2L403,158.8l-17.6,54.5H420.5z
			"/>
		<path d="M470.9,171.6H491v13.6c5.8-9.8,17.6-15.4,28.8-15.4c25.7,0,38.1,20.6,38.1,43.6c0,23.6-13.2,43.9-37.5,43.9
			c-11.8,0-23.7-4.7-29.3-14.8v42h-20.1V171.6z M537.2,212.9c0-14.2-7.1-27.4-23.5-27.4c-16.6,0-23.3,13.3-23.3,28.4
			c0,15.6,7.2,27.6,23.9,27.6C532,241.6,537.2,228.4,537.2,212.9z"/>
		<path d="M574.4,171.6h20.1v13.6c5.8-9.8,17.6-15.4,28.8-15.4c25.7,0,38.1,20.6,38.1,43.6c0,23.6-13.2,43.9-37.5,43.9
			c-11.8,0-23.7-4.7-29.3-14.8v42h-20.1V171.6z M640.6,212.9c0-14.2-7.1-27.4-23.5-27.4c-16.6,0-23.3,13.3-23.3,28.4
			c0,15.6,7.2,27.6,23.9,27.6C635.4,241.6,640.6,228.4,640.6,212.9z"/>
		<path d="M720.3,255.1c-4.3,1.3-8.8,2-13.8,2c-16,0-25.5-8.3-25.5-25v-45.7h-11.3v-14.8H681v-17.3l20.1-8.7v26.1h18.5v14.8h-18.5
			v43.9c0,6.6,2.8,10.7,10.2,10.7c2.8,0,6-0.6,9-1.6V255.1z"/>
		<path d="M747.7,136.1c6.5,0,11.7,4.8,11.7,11.5c0,6.6-5,11.4-11.6,11.4c-6.5,0-12-4.9-12-11.5
			C735.8,140.8,741.2,136.1,747.7,136.1z M737.6,171.8h20.1v83.9h-20.1V171.8z"/>
		<path d="M856.2,231.9c-5.6,17.6-21.3,25.3-38.8,25.3c-26.7,0-42.6-17.9-42.6-43.9c0-25,17.8-43.6,43.1-43.6
			c17,0,31.7,7.1,37.9,23.6l-16.2,7.1c-3.4-9.4-11.5-14.8-21.7-14.8c-16.4,0-22.4,14.2-22.4,28.6c0,14.8,6.5,27.6,22.8,27.6
			c11.5,0,19.3-6.4,22.8-16.9L856.2,231.9z"/>
		<path d="M881,230.6c3.1,8.2,11.7,12.2,20.8,12.2c6.5,0,14.6-2,14.6-10c0-8.4-9.1-10.4-19.5-12.6c-13.5-2.8-28.6-6.1-28.6-25
			c0-17.3,16.1-25.5,31.3-25.5c13.3,0,28.6,5,34.1,18.3l-14.9,6.4c-3.3-7.5-11.5-10.3-18.4-10.3c-6.7,0-13.1,2.7-13.1,9.5
			c0,7.7,8.2,9.3,18.4,11.3c13.7,2.7,30.1,5.8,30.1,25.4c0,19.8-16.6,26.8-34.1,26.8c-14.8,0-30.8-5-36-20.1L881,230.6z"/>
	</g>
	<g>
		<path d="M360.1,104.4l37-53.4h-33.2V40.5h50.6v5.2l-36.1,53.4h35v10.5h-53.3V104.4z"/>
		<path d="M446.2,58c15.4,0,27.2,10.8,27.2,26.3c0,15.9-12.4,26.4-27.7,26.4c-15.4,0-27.8-10.7-27.8-26.1
			C417.8,68.6,430.9,58,446.2,58z M460.3,84.3c0-9.3-4.7-17.1-14.7-17.1c-10.2,0-14.3,8.1-14.3,17.4c0,9,4.8,16.6,14.6,16.6
			C456.1,101.3,460.3,93.2,460.3,84.3z"/>
		<path d="M482.2,36.1h12.1v31c3.3-6.3,9.9-9.1,16.9-9.1c12.1,0,18.2,8.5,18.2,20v31.7h-12.2V79.2c0-7.3-3.8-11.3-10.8-11.3
			c-7.8,0-12.1,4.8-12.1,12v29.7h-12.1V36.1z"/>
		<path d="M565.5,58c15.4,0,27.2,10.8,27.2,26.3c0,15.9-12.4,26.4-27.7,26.4c-15.4,0-27.8-10.7-27.8-26.1
			C537.2,68.6,550.3,58,565.5,58z M579.7,84.3c0-9.3-4.7-17.1-14.7-17.1c-10.2,0-14.3,8.1-14.3,17.4c0,9,4.8,16.6,14.6,16.6
			C575.4,101.3,579.7,93.2,579.7,84.3z"/>
	</g>
</g>
<path class="st1" d="M284,91.5C261.4,38,208.8,3.1,150.6,3.1C70.5,3,5.6,67.9,5.5,148c0,6.5,0.4,13,1.3,19.4
	c0.6,4.7,4.9,7.9,9.6,7.3c4.7-0.6,7.9-4.9,7.3-9.6c-0.8-5.7-1.1-11.4-1.1-17.1c0-35.2,14.5-68.9,40.1-93.1
	c51.4-48.6,132.5-46.4,181.1,5c48.6,51.4,46.4,132.5-5,181.1c-51.4,48.6-132.5,46.4-181.1-5c-0.5-0.5-0.7-1.2-0.7-1.9v-39.5
	c0-1.6,1.3-2.8,2.8-2.8h20.1c1.5,0,2.7,1.1,2.8,2.6v39.9c0,4.7,3.8,8.5,8.5,8.5c0,0,0,0,0,0c0,0,0,0,0,0c4.7,0,8.5-3.8,8.5-8.5
	v-39.6c0-0.2,0-0.4,0-0.6v-56.5c0-1.6,1.3-2.8,2.8-2.8h20.1c1.6,0,2.8,1.3,2.8,2.8V234c0,0,0,0,0,0v0.1c0,4.7,3.8,8.5,8.5,8.5
	c4.7,0,8.5-3.8,8.5-8.5V234v-96.6V91.7c0-1.6,1.3-2.8,2.8-2.8h20.1c1.6,0,2.8,1.3,2.8,2.8v142.3c0,4.7,3.8,8.5,8.5,8.5
	c4.7,0,8.5-3.8,8.5-8.5V91.7c0-10.9-8.9-19.8-19.8-19.8h-20.1c-10.9,0-19.8,8.9-19.8,19.8v26c-0.9-0.1-1.9-0.2-2.8-0.2h-20.1
	c-10.9,0-19.8,8.9-19.8,19.8v37.5c-0.9-0.1-1.9-0.2-2.8-0.2H59.7c-11,0-19.8,8.9-19.8,19.8V234c0,5,1.9,9.9,5.4,13.6
	c27.3,28.9,65.4,45.3,105.3,45.3c19.4,0,38.7-3.9,56.6-11.4C280.7,250.3,315.2,165.3,284,91.5z"/>
</svg>
