<svg xmlns="http://www.w3.org/2000/svg" width="400" height="400" viewBox="0 0 400 400">
  <path id="iOS" d="M210.75,223.75c0,35.75-18.625,58.375-48.375,58.375S114,259.5,114,223.75c0-35.875,18.625-58.375,48.375-58.375s48.375,22.5,48.375,58.375M400,128V308c0,14.25-.125,36.75-7.875,56.75-3.875,9.875-12.875,23.75-25.625,33.625A83.652,83.652,0,0,1,338.375,413c-12.875,3.75-28.75,5-48.375,5H110c-19.625,0-35.5-1.25-48.375-5.125A85.965,85.965,0,0,1,33.5,398.25,84.13,84.13,0,0,1,7.875,364.625C.125,344.75,0,322.25,0,308V128c0-14.25.125-36.75,7.875-56.75C11.75,61.375,20.75,47.5,33.5,37.625A83.651,83.651,0,0,1,61.625,23C74.5,19.25,90.375,18,110,18H290c19.75,0,35.5,1.25,48.375,5.125a84.773,84.773,0,0,1,53.75,48.25C399.875,91.25,400,113.75,400,128M78.875,209.625H61v86.75H78.875Zm1.25-24.125a10.25,10.25,0,1,0-10.25,10.25,10.216,10.216,0,0,0,10.25-10.25m149.25,38.25c0-46.125-25.75-75.125-67-75.125s-67,29-67,75.125,25.75,75,67,75,67-28.875,67-75m116,31.375c0-20.5-12-32.625-42.25-39.25L287,212.375c-19.875-4.375-27.625-12.25-27.625-23.625,0-14.875,14-23.625,32.125-23.625,19,0,31.5,9.75,33.125,25.625H342.75c-.875-24.625-21.75-42-50.75-42-30.125,0-51.25,16.875-51.25,40.75,0,20.625,12.625,33.875,41.75,40.125l16.125,3.5c20.125,4.375,28.25,12.5,28.25,24.625,0,14.375-14.375,24.625-34,24.625-20.875,0-35.375-9.5-37.5-25.125H237.25c1.75,25.125,22.875,41.375,54.625,41.375,32.375.125,53.5-16.625,53.5-43.5" transform="translate(0 -18)" fill="#1d1d1f"/>
</svg>
