<svg xmlns="http://www.w3.org/2000/svg" width="400" height="399.896" viewBox="0 0 400 399.896">
  <g id="iPad_OS" data-name="iPad OS" transform="translate(0.013 -18.012)">
    <path id="Path_114739" data-name="Path 114739" d="M40.059,38.835a13.1,13.1,0,0,0-14.988-14.1H11.332V52.686H25.071A13.127,13.127,0,0,0,40.059,38.835Z" transform="translate(130.352 75.57)"/>
    <path id="Path_114740" data-name="Path 114740" d="M34.778,62.771c8.83,0,14.3-6.982,14.3-18.4S43.571,25.9,34.778,25.9s-14.2,6.982-14.2,18.448S25.86,62.771,34.778,62.771Z" transform="translate(236.577 90.628)"/>
    <path id="Path_114741" data-name="Path 114741" d="M391.922,71.377A84.645,84.645,0,0,0,338.215,23.2a174.175,174.175,0,0,0-48.3-5.083H110.059A174.172,174.172,0,0,0,61.76,23.2,84.645,84.645,0,0,0,8.052,71.377,156.563,156.563,0,0,0,.146,128.032V307.889a156.6,156.6,0,0,0,7.906,56.655A84.645,84.645,0,0,0,61.76,412.718a174.15,174.15,0,0,0,48.3,5.084H289.916a174.147,174.147,0,0,0,48.3-5.083,84.645,84.645,0,0,0,53.707-48.174,156.563,156.563,0,0,0,7.906-56.655V128.032A156.562,156.562,0,0,0,391.922,71.377ZM268.383,107.6a17.611,17.611,0,0,1,16.237,9.318h.774V87.726h10.492v73.766h-9.992V153.1h-.824a18.448,18.448,0,0,1-16.687,9.268c-13.514,0-22.057-10.642-22.057-27.478s8.618-27.3,22.057-27.3ZM130.792,91.086h27.566a23.179,23.179,0,1,1-.35,46.356l-16.237-.006v24.056H130.792Zm-21.858-5.271a6.607,6.607,0,1,1-6.632,6.632A6.607,6.607,0,0,1,108.935,85.815Zm5.221,22.694v52.983H103.714V108.51ZM136.75,338.327c-41.155,0-66.909-28.877-66.909-74.94S95.6,188.309,136.75,188.309s66.922,28.977,66.922,75.078-25.755,74.94-66.922,74.94Zm52.7-191.822c0-9.517,7.119-14.988,19.759-15.812l14.389-.874v-4.546c0-5.808-3.747-9.08-10.879-9.08-5.858,0-9.9,2.2-11.079,6.045H191.494c1.074-8.93,9.655-14.738,21.708-14.738,13.314,0,20.833,6.632,20.833,17.761V161.48h-10.1v-7.494h-.824a17.811,17.811,0,0,1-15.95,8.393A15.987,15.987,0,0,1,189.446,146.5Zm81.573,191.76c-31.7,0-52.82-16.237-54.532-41.367h18.1c2.123,15.6,16.612,25.068,37.47,25.068,19.709,0,34.01-10.367,34.01-24.668,0-12.178-8.056-20.221-28.178-24.655l-16.1-3.522c-29.077-6.345-41.667-19.509-41.667-40.156,0-23.943,21.133-40.755,51.209-40.755,28.977,0,49.96,17.311,50.722,41.967H303.942a29.5,29.5,0,0,0-33.111-25.667c-18.1,0-32.087,8.855-32.087,23.644,0,11.478,7.744,19.322,27.566,23.656l16.1,3.522c30.288,6.632,42.266,18.735,42.266,39.256-.025,26.928-21.158,43.74-53.657,43.74Z" transform="translate(0 0)"/>
    <path id="Path_114742" data-name="Path 114742" d="M55.369,32.983c-29.676,0-48.3,22.482-48.3,58.366S25.693,149.6,55.369,149.6s48.3-22.482,48.3-58.254S85.058,32.983,55.369,32.983Z" transform="translate(81.381 172.013)"/>
    <path id="Path_114743" data-name="Path 114743" d="M39.618,27.566l-12.977.874C19.321,28.927,16,31.513,16,36.346s4.147,7.806,9.855,7.806a12.652,12.652,0,0,0,13.739-12Z" transform="translate(183.976 109.771)"/>
  </g>
</svg>
