<svg xmlns="http://www.w3.org/2000/svg" width="400" height="400" viewBox="0 0 400 400">
  <path id="Mac_OS" data-name="Mac OS" d="M185.882,242.824c0,33.647-17.529,54.824-45.529,54.824s-45.529-21.294-45.529-54.824c0-33.765,17.529-54.941,45.529-54.941S185.882,209.059,185.882,242.824Zm39.059-118.706-12.235.824c-6.941.471-10,2.941-10,7.412,0,4.706,3.882,7.294,9.294,7.294,7.412,0,12.941-4.824,12.941-11.294ZM400,200c0,111.647-88.353,200-200,200S0,311.647,0,200,88.353,0,200,0,400,88.353,400,200ZM246.353,121.647c0,16.235,8.941,26.118,23.529,26.118,12.353,0,20.118-6.941,21.412-16.824h-9.647c-1.294,5.412-5.529,8.353-11.765,8.353-8.235,0-13.294-6.706-13.294-17.647,0-10.824,5.059-17.294,13.294-17.294,6.588,0,10.706,3.765,11.765,8.588h9.647C290,103.294,282.471,96,269.882,96,255.294,95.882,246.353,105.765,246.353,121.647ZM111.882,96.941v49.882h9.882V116.235c0-6.471,4.588-11.647,10.588-11.647,5.882,0,9.647,3.529,9.647,9.176v33.059h9.647V115.294c0-6,4.118-10.706,10.588-10.706s9.647,3.294,9.647,10.235v32h9.882V112.353c0-10.353-5.882-16.471-16-16.471-6.941,0-12.706,3.529-15.176,8.941h-.824c-2.235-5.412-6.941-8.941-13.765-8.941-6.706,0-11.765,3.294-13.882,8.941h-.706v-8Zm91.529,145.882c0-43.412-24.235-70.706-63.059-70.706s-63.059,27.294-63.059,70.706,24.235,70.588,63.059,70.588S203.412,286.118,203.412,242.824Zm6.118-95.176c6.588,0,12-2.824,15.059-7.882h.824v7.059h9.529V112.706c0-10.471-7.059-16.706-19.647-16.706-11.412,0-19.412,5.529-20.471,13.882h9.529c1.059-3.647,4.941-5.647,10.471-5.647,6.706,0,10.235,3.059,10.235,8.588v4.353L211.529,118c-11.882.706-18.588,5.882-18.588,14.941C192.824,141.882,199.882,147.647,209.529,147.647ZM317.412,272.235c0-19.412-11.294-30.706-39.765-36.941L262.471,232c-18.706-4.118-26-11.529-26-22.235,0-13.882,13.176-22.235,30.235-22.235,17.882,0,29.647,9.176,31.176,24.235h17.059c-.824-23.176-20.471-39.529-47.765-39.529-28.353,0-48.235,15.882-48.235,38.353,0,19.412,11.882,31.882,39.294,37.882l15.176,3.294C292.353,255.882,300,263.529,300,274.941c0,13.412-13.529,23.176-32,23.176-19.647,0-33.294-8.941-35.294-23.647H215.647c1.647,23.647,21.529,38.941,51.412,38.941,30.471,0,50.353-15.882,50.353-41.176Z"/>
</svg>
