<?xml version="1.0" encoding="utf-8"?>
<!-- Generator: Adobe Illustrator 27.3.1, SVG Export Plug-In . SVG Version: 6.00 Build 0)  -->
<svg version="1.1" id="Layer_1" xmlns="http://www.w3.org/2000/svg" xmlns:xlink="http://www.w3.org/1999/xlink" x="0px" y="0px"
	 viewBox="0 0 1304 296" style="enable-background:new 0 0 1304 296;" xml:space="preserve">
<style type="text/css">
	.st0{fill:#FFFFFF;}
	.st1{fill:#E42527;}
	.st2{fill:#226DB4;}
</style>
<g>
	<g>
		<path d="M360.2,140.8h28.2l33.1,83.7l32.9-83.7h27.5v114.9h-20.6v-87.6l-36.2,87.6h-9.9l-35-87.6v87.6h-20.1V140.8z"/>
		<path d="M552.9,245.4c-6.4,8.5-15.7,11.8-26.1,11.8c-15.8,0-28.2-8-28.2-24.5c0-23.3,24.6-27,44.2-27h9.9v-1.3
			c0-12-2.8-19.6-16.4-19.6c-8.2,0-15.7,4.2-18.7,12l-15.6-6.7c5.6-14.8,21.3-20.2,36.3-20.2c19.9,0,34.3,9.6,34.3,30.9v54.9h-19.8
			V245.4z M542.6,218.1c-9.3,0-24,1.1-24,13.8c0,8.1,5.9,11.1,13.4,11.1c10.2,0,20.7-5.3,20.7-16.7v-8.2H542.6z"/>
		<path d="M593.8,171.6h20.1v15.8c5.7-11.5,14.8-17,27.6-17V189c-16.2,0-27.6,5.3-27.6,23.3v43.4h-20.1V171.6z"/>
		<path d="M657.5,133.6h20.1v74.7l30.4-36.6h22.1l-33.4,38.5l35.9,45.5h-23.2l-31.9-41v41h-20.1V133.6z"/>
		<path d="M814.7,237.4c-7,14.8-22.1,19.9-37.5,19.9c-26.5,0-43.2-17.7-43.2-43.9c0-24.6,17-43.6,42.3-43.6
			c27.2,0,40.4,15.9,40.4,48.3h-62.2c0,14.2,8.2,24.6,23.5,24.6c9.1,0,16.6-3.7,21-12.2L814.7,237.4z M796.6,204.9
			c-0.6-12.7-8.3-20.5-20.2-20.5c-12.6,0-20,8.9-21.7,20.5H796.6z"/>
		<path d="M875.3,255.1c-4.3,1.3-8.8,2-13.8,2c-16,0-25.5-8.3-25.5-25v-45.7h-11.3v-14.8H836v-17.3l20.1-8.7v26.1h18.5v14.8h-18.5
			v43.9c0,6.6,2.8,10.7,10.2,10.7c2.8,0,6-0.6,9-1.6V255.1z"/>
		<path d="M892,171.6h20.1v13.6c5.8-9.8,17.6-15.4,28.8-15.4c25.7,0,38.1,20.6,38.1,43.6c0,23.6-13.2,43.9-37.5,43.9
			c-11.8,0-23.7-4.7-29.3-14.8v42H892V171.6z M958.3,212.9c0-14.2-7.1-27.4-23.5-27.4c-16.6,0-23.3,13.3-23.3,28.4
			c0,15.6,7.2,27.6,23.9,27.6C953.1,241.6,958.3,228.4,958.3,212.9z"/>
		<path d="M996,137.6l20.1-8.7v126.8H996V137.6z"/>
		<path d="M1086.9,245.4c-6.4,8.5-15.7,11.8-26.1,11.8c-15.8,0-28.2-8-28.2-24.5c0-23.3,24.6-27,44.2-27h9.9v-1.3
			c0-12-2.8-19.6-16.4-19.6c-8.2,0-15.7,4.2-18.7,12l-15.6-6.7c5.6-14.8,21.3-20.2,36.3-20.2c19.9,0,34.3,9.6,34.3,30.9v54.9h-19.8
			V245.4z M1076.6,218.1c-9.3,0-24,1.1-24,13.8c0,8.1,5.9,11.1,13.4,11.1c10.2,0,20.7-5.3,20.7-16.7v-8.2H1076.6z"/>
		<path d="M1203.7,231.9c-5.6,17.6-21.3,25.3-38.8,25.3c-26.7,0-42.6-17.9-42.6-43.9c0-25,17.8-43.6,43.1-43.6
			c17,0,31.7,7.1,37.9,23.6l-16.2,7.1c-3.4-9.4-11.5-14.8-21.7-14.8c-16.4,0-22.4,14.2-22.4,28.6c0,14.8,6.5,27.6,22.8,27.6
			c11.5,0,19.3-6.4,22.8-16.9L1203.7,231.9z"/>
		<path d="M1294.7,237.4c-7,14.8-22.1,19.9-37.5,19.9c-26.5,0-43.2-17.7-43.2-43.9c0-24.6,17-43.6,42.3-43.6
			c27.2,0,40.4,15.9,40.4,48.3h-62.2c0,14.2,8.2,24.6,23.5,24.6c9.1,0,16.6-3.7,21-12.2L1294.7,237.4z M1276.6,204.9
			c-0.6-12.7-8.3-20.5-20.2-20.5c-12.6,0-20,8.9-21.7,20.5H1276.6z"/>
	</g>
	<g>
		<path d="M360.4,104.4l37-53.4h-33.2V40.5h50.6v5.2l-36.1,53.4h35v10.5h-53.3V104.4z"/>
		<path d="M446.4,58c15.4,0,27.2,10.8,27.2,26.3c0,15.9-12.4,26.4-27.7,26.4c-15.4,0-27.8-10.7-27.8-26.1
			C418.1,68.6,431.2,58,446.4,58z M460.6,84.3c0-9.3-4.7-17.1-14.7-17.1c-10.2,0-14.3,8.1-14.3,17.4c0,9,4.8,16.6,14.6,16.6
			C456.4,101.3,460.6,93.2,460.6,84.3z"/>
		<path d="M482.4,36.1h12.1v31c3.3-6.3,9.9-9.1,16.9-9.1c12.1,0,18.2,8.5,18.2,20v31.7h-12.2V79.2c0-7.3-3.8-11.3-10.8-11.3
			c-7.8,0-12.1,4.8-12.1,12v29.7h-12.1V36.1z"/>
		<path d="M565.8,58c15.4,0,27.2,10.8,27.2,26.3c0,15.9-12.4,26.4-27.7,26.4c-15.4,0-27.8-10.7-27.8-26.1
			C537.5,68.6,550.6,58,565.8,58z M580,84.3c0-9.3-4.7-17.1-14.7-17.1c-10.2,0-14.3,8.1-14.3,17.4c0,9,4.8,16.6,14.6,16.6
			C575.7,101.3,580,93.2,580,84.3z"/>
	</g>
</g>
<g>
	<path class="st1" d="M196.7,193.8c0-0.2,0-0.3,0-0.5c0-0.1,0-0.2,0-0.4c0-0.1,0-0.3-0.1-0.4c0-0.1,0-0.3-0.1-0.4
		c0-0.1-0.1-0.3-0.1-0.4c0-0.1-0.1-0.3-0.1-0.4c0-0.1-0.1-0.2-0.1-0.3c-0.1-0.2-0.1-0.3-0.2-0.5c0-0.1-0.1-0.2-0.1-0.3
		c-0.1-0.2-0.2-0.3-0.2-0.5c0,0,0-0.1-0.1-0.1c0-0.1-0.1-0.1-0.1-0.2c-0.1-0.1-0.2-0.3-0.3-0.4c-0.1-0.1-0.2-0.2-0.3-0.3
		c-0.1-0.1-0.2-0.2-0.2-0.3c-0.1-0.1-0.2-0.3-0.3-0.4c-0.1-0.1-0.1-0.1-0.2-0.2c-0.1-0.1-0.3-0.2-0.4-0.4c-0.1-0.1-0.1-0.1-0.2-0.2
		c-0.1-0.1-0.3-0.2-0.4-0.3c-0.1-0.1-0.2-0.1-0.2-0.2c-0.1-0.1-0.3-0.2-0.4-0.3c-0.1-0.1-0.2-0.1-0.3-0.2c-0.1-0.1-0.3-0.1-0.4-0.2
		c-0.1,0-0.2-0.1-0.3-0.1c-0.1-0.1-0.3-0.1-0.4-0.2c-0.1,0-0.2-0.1-0.3-0.1c-0.2,0-0.3-0.1-0.5-0.1c-0.1,0-0.2,0-0.3-0.1
		c-0.2,0-0.4-0.1-0.5-0.1c-0.1,0-0.2,0-0.3,0c-0.2,0-0.4,0-0.6,0c0,0-0.1,0-0.1,0c0,0-0.1,0-0.1,0c-0.2,0-0.4,0-0.7,0
		c-0.1,0-0.1,0-0.2,0c-0.2,0-0.4,0.1-0.6,0.1c-0.1,0-0.2,0-0.2,0c-0.2,0-0.3,0.1-0.5,0.1c-0.1,0-0.2,0.1-0.3,0.1
		c-0.1,0-0.3,0.1-0.4,0.2c-0.1,0-0.3,0.1-0.4,0.2c-0.1,0.1-0.2,0.1-0.4,0.2c-0.1,0.1-0.3,0.1-0.4,0.2c0,0-0.1,0-0.1,0.1
		c-10,5.9-21.5,9-33.1,9c-11.7,0-23.1-3.1-33.1-9c0,0-0.1,0-0.1-0.1c-0.2-0.1-0.3-0.2-0.5-0.2c-0.1,0-0.2-0.1-0.3-0.1
		c-0.1-0.1-0.3-0.1-0.5-0.2c-0.1,0-0.2-0.1-0.4-0.1c-0.1,0-0.3-0.1-0.4-0.1c-0.1,0-0.3-0.1-0.4-0.1c-0.1,0-0.2,0-0.3-0.1
		c-0.2,0-0.4-0.1-0.5-0.1c-0.1,0-0.2,0-0.3,0c-0.2,0-0.4,0-0.6,0c0,0-0.1,0-0.1,0c-0.1,0-0.1,0-0.2,0c-0.2,0-0.4,0-0.6,0
		c-0.1,0-0.2,0-0.3,0c-0.2,0-0.3,0-0.5,0.1c-0.1,0-0.2,0-0.3,0.1c-0.2,0-0.3,0.1-0.5,0.1c-0.1,0-0.2,0.1-0.3,0.1
		c-0.2,0.1-0.3,0.1-0.5,0.2c-0.1,0-0.2,0.1-0.3,0.1c-0.2,0.1-0.3,0.2-0.5,0.2c-0.1,0-0.2,0.1-0.2,0.1c-0.2,0.1-0.3,0.2-0.5,0.3
		c-0.1,0-0.1,0.1-0.2,0.1c-0.2,0.1-0.4,0.3-0.5,0.4c0,0-0.1,0.1-0.1,0.1c-0.2,0.1-0.3,0.3-0.5,0.5c0,0-0.1,0.1-0.1,0.1
		c-0.2,0.2-0.3,0.3-0.4,0.5c0,0.1-0.1,0.1-0.1,0.2c-0.1,0.2-0.2,0.3-0.4,0.5c-0.1,0.1-0.1,0.2-0.2,0.2c-0.1,0.1-0.1,0.2-0.2,0.3
		c0,0.1-0.1,0.1-0.1,0.2c0,0.1-0.1,0.2-0.1,0.3c-0.1,0.2-0.2,0.3-0.2,0.5c0,0.1-0.1,0.2-0.1,0.2c-0.1,0.2-0.1,0.4-0.2,0.6
		c0,0.1,0,0.1-0.1,0.2c-0.1,0.2-0.1,0.4-0.2,0.6c0,0,0,0.1,0,0.1c0,0.2-0.1,0.5-0.1,0.7c0,0,0,0.1,0,0.1c0,0.2,0,0.5,0,0.7
		c0,0,0,0,0,0.1l0,90.6c0,2.3,0.9,4.4,2.5,6s3.8,2.5,6,2.5h74.9c4.7,0,8.5-3.8,8.5-8.5v-90.6C196.7,193.9,196.7,193.8,196.7,193.8z
		 M121.8,276l0-68.6c9.2,3.5,19,5.3,29,5.3c9.9,0,19.8-1.8,29-5.3V276H121.8z"/>
	<g>
		<path class="st2" d="M219.2,293H82.4c-23.4,0-42.5-19.1-42.5-42.5v-80.2c0-4.7,3.8-8.5,8.5-8.5s8.5,3.8,8.5,8.5v80.2
			c0,14.1,11.4,25.5,25.5,25.5h136.8c14.1,0,25.5-11.4,25.5-25.5V136.4c0-4.7,3.8-8.5,8.5-8.5c13.8,0,25.1-11,25.6-24.6l-16-63.9
			C260,27.9,249.8,20,238.1,20H63.5c-11.7,0-21.9,7.9-24.7,19.3l-16,63.9c0.5,13.7,11.8,24.6,25.6,24.6c14.1,0,25.6-11.5,25.6-25.6
			c0-4.7,3.8-8.5,8.5-8.5c4.7,0,8.5,3.8,8.5,8.5c0,14.1,11.5,25.6,25.6,25.6s25.6-11.5,25.6-25.6c0-4.7,3.8-8.5,8.5-8.5
			c4.7,0,8.5,3.8,8.5,8.5c0,14.1,11.5,25.6,25.6,25.6c14.1,0,25.6-11.5,25.6-25.6c0-4.7,3.8-8.5,8.5-8.5c4.7,0,8.5,3.8,8.5,8.5
			c0,23.5-19.1,42.6-42.6,42.6c-13.9,0-26.3-6.7-34.1-17.1c-7.8,10.4-20.2,17.1-34.1,17.1s-26.3-6.7-34.1-17.1
			c-7.8,10.4-20.2,17.1-34.1,17.1c-23.5,0-42.6-19.1-42.6-42.6c0-0.7,0.1-1.4,0.3-2.1l16.2-65C27,16.2,43.9,3,63.5,3h174.6
			c19.5,0,36.5,13.2,41.2,32.2l16.2,65c0.2,0.7,0.3,1.4,0.3,2.1c0,20.6-14.7,37.8-34.1,41.8v106.5C261.7,273.9,242.6,293,219.2,293z
			"/>
	</g>
</g>
</svg>
