<svg xmlns="http://www.w3.org/2000/svg" xmlns:xlink="http://www.w3.org/1999/xlink" width="400" height="400" viewBox="0 0 400 400">
  <defs>
    <clipPath id="clip-path">
      <rect id="Rectangle_30138" data-name="Rectangle 30138" width="400" height="400" transform="translate(6816 9405)" fill="#fff" stroke="#707070" stroke-width="1"/>
    </clipPath>
  </defs>
  <g id="React" transform="translate(-6816 -9405)" clip-path="url(#clip-path)">
    <g id="Group_29891" data-name="Group 29891" transform="translate(6826.5 9395.768)">
      <circle id="Ellipse_1454" data-name="Ellipse 1454" cx="38.095" cy="38.095" r="38.095" transform="translate(151.405 171.134)" fill="#58c4dc"/>
      <path id="Ellipse_1455" data-name="Ellipse 1455" d="M199.5-.5c52.2,0,101.417,9.214,138.6,25.944,39.6,17.819,61.4,42.428,61.4,69.294s-21.807,51.475-61.4,69.294c-37.178,16.73-86.4,25.944-138.6,25.944S98.083,180.762,60.9,164.032C21.307,146.213-.5,121.6-.5,94.738S21.307,43.263,60.9,25.444C98.083,8.714,147.3-.5,199.5-.5Zm0,171.429c49.56,0,96-8.618,130.779-24.266,31.886-14.349,50.173-33.274,50.173-51.924s-18.288-37.575-50.173-51.924C295.5,27.166,249.06,18.548,199.5,18.548s-96,8.618-130.779,24.266C36.835,57.163,18.548,76.088,18.548,94.738s18.288,37.575,50.174,51.924C103.5,162.311,149.94,170.929,199.5,170.929Z" transform="translate(-10 114.491)" fill="#58c4dc"/>
      <path id="Ellipse_1456" data-name="Ellipse 1456" d="M200,0c52.2,0,101.417,9.214,138.6,25.944,39.6,17.819,61.4,42.428,61.4,69.294s-21.807,51.475-61.4,69.294c-37.178,16.73-86.4,25.944-138.6,25.944S98.583,181.262,61.4,164.532C21.807,146.713,0,122.1,0,95.238S21.807,43.763,61.4,25.944C98.583,9.214,147.8,0,200,0Zm0,171.429c49.56,0,96-8.618,130.779-24.266,31.886-14.349,50.173-33.274,50.173-51.924s-18.288-37.575-50.173-51.924C296,27.666,249.56,19.048,200,19.048S104,27.666,69.221,43.314C37.335,57.663,19.048,76.588,19.048,95.238s18.288,37.575,50.174,51.924C104,162.811,150.44,171.429,200,171.429Z" transform="translate(171.976 -11.593) rotate(60)" fill="#58c4dc"/>
      <path id="Ellipse_1457" data-name="Ellipse 1457" d="M200,0c52.2,0,101.417,9.214,138.6,25.944,39.6,17.819,61.4,42.428,61.4,69.294s-21.807,51.475-61.4,69.294c-37.178,16.73-86.4,25.944-138.6,25.944S98.583,181.262,61.4,164.532C21.807,146.713,0,122.1,0,95.238S21.807,43.763,61.4,25.944C98.583,9.214,147.8,0,200,0Zm0,171.429c49.56,0,96-8.618,130.779-24.266,31.886-14.349,50.173-33.274,50.173-51.924s-18.288-37.575-50.173-51.924C296,27.666,249.56,19.048,200,19.048S104,27.666,69.221,43.314C37.335,57.663,19.048,76.588,19.048,95.238s18.288,37.575,50.174,51.924C104,162.811,150.44,171.429,200,171.429Z" transform="translate(371.976 83.645) rotate(120)" fill="#58c4dc"/>
    </g>
  </g>
</svg>
