<svg xmlns="http://www.w3.org/2000/svg" width="400" height="400.68" viewBox="0 0 400 400.68">
  <g id="_10_Slack" data-name="10 Slack" transform="translate(-0.7 -0.6)">
    <path id="Path_6" data-name="Path 6" d="M84.81,108.8a42,42,0,1,1-42-42h42Zm21,0a42,42,0,0,1,84.01,0V213.817a42,42,0,0,1-84.01,0Z" transform="translate(0.218 145.459)" fill="#e01e5a"/>
    <path id="Path_7" data-name="Path 7" d="M148.035,84.61a42,42,0,1,1,42-42v42Zm0,21.321a42,42,0,0,1,0,84.01H42.7a42,42,0,0,1,0-84.01Z" transform="translate(0)" fill="#36c5f0"/>
    <path id="Path_8" data-name="Path 8" d="M171.912,147.935a42,42,0,1,1,42,42h-42Zm-21,0a42,42,0,1,1-84.01,0V42.6a42,42,0,1,1,84.01,0v105.33Z" transform="translate(144.46)" fill="#2eb67d"/>
    <path id="Path_9" data-name="Path 9" d="M108.9,171.812a42,42,0,1,1-42,42v-42Zm0-21a42,42,0,0,1,0-84.01h105.33a42,42,0,1,1,0,84.01Z" transform="translate(144.46 145.459)" fill="#ecb22e"/>
  </g>
</svg>
