<svg width="187" height="40" viewBox="0 0 187 40" fill="none" xmlns="http://www.w3.org/2000/svg">
<path fill-rule="evenodd" clip-rule="evenodd" d="M103.561 15.0671C104.112 15.0989 104.533 15.5717 104.502 16.1231C104.44 17.1882 104.337 18.2385 104.192 19.2128C104.111 19.759 103.602 20.1359 103.056 20.0546C102.51 19.9732 102.133 19.4644 102.214 18.9182C102.349 18.0124 102.446 17.0228 102.505 16.0079C102.537 15.4565 103.009 15.0353 103.561 15.0671Z" fill="black"/>
<path fill-rule="evenodd" clip-rule="evenodd" d="M88.9538 3.07833C88.8114 2.96883 88.6039 2.97344 88.4641 3.09642L88.4558 3.10377L88.4557 3.10372C84.8026 6.24715 80.4163 7.58654 75.5392 7.5657L75.5165 7.5656L75.5165 7.56534C75.3417 7.56062 75.1447 7.70019 75.121 7.95725C74.7263 14.5867 75.2583 20.421 77.3077 25.0428C79.3348 29.6145 82.8743 33.0666 88.6815 34.9311C88.7488 34.9509 88.8223 34.9505 88.8894 34.9299L88.9087 34.924L88.9088 34.9242C89.9807 34.6179 91.0152 34.2348 91.9924 33.7941C92.4958 33.5671 93.088 33.7911 93.3151 34.2946C93.5421 34.798 93.3181 35.3902 92.8146 35.6173C91.7544 36.0954 90.6317 36.5115 89.4667 36.8448C89.0182 36.9804 88.5374 36.9793 88.0894 36.8415L88.0781 36.838L88.0781 36.8379C81.7297 34.8018 77.7413 30.9549 75.4793 25.8535C73.24 20.8032 72.7214 14.5917 73.1253 7.82611L73.1264 7.80699L73.1266 7.807C73.2256 6.55281 74.26 5.5376 75.5575 5.56575C80.0346 5.58309 83.9239 4.36316 87.1476 1.59082C88.0074 0.838216 89.276 0.80389 90.1719 1.49208C93.6966 4.18369 97.4026 5.82704 101.76 5.54775L101.77 5.54711L101.77 5.54716C103.04 5.47849 104.171 6.43283 104.279 7.73585C104.461 9.5766 104.564 11.3076 104.564 12.9657C104.564 13.518 104.116 13.9657 103.564 13.9657C103.011 13.9657 102.564 13.518 102.564 12.9657C102.564 11.3863 102.466 9.72018 102.288 7.92413L102.286 7.90442L102.287 7.90441C102.27 7.69428 102.085 7.53485 101.881 7.54408C96.8813 7.86263 92.7097 5.9469 88.9565 3.08044L88.9538 3.07833Z" fill="black"/>
<path fill-rule="evenodd" clip-rule="evenodd" d="M99.4434 32.8452C99.9956 32.8452 100.443 33.2929 100.443 33.8452V35.7052C100.443 36.2575 99.9956 36.7052 99.4434 36.7052C98.8911 36.7052 98.4434 36.2575 98.4434 35.7052V33.8452C98.4434 33.2929 98.8911 32.8452 99.4434 32.8452Z" fill="black"/>
<path fill-rule="evenodd" clip-rule="evenodd" d="M94.3834 27.8853C93.9157 27.8853 93.5234 28.2775 93.5234 28.7453V36.1853C93.5234 36.653 93.9157 37.0453 94.3834 37.0453H104.603C105.071 37.0453 105.463 36.653 105.463 36.1853V28.7453C105.463 28.2775 105.071 27.8853 104.603 27.8853H94.3834ZM91.5234 28.7453C91.5234 27.173 92.8112 25.8853 94.3834 25.8853H104.603C106.176 25.8853 107.463 27.173 107.463 28.7453V36.1853C107.463 37.7575 106.176 39.0453 104.603 39.0453H94.3834C92.8112 39.0453 91.5234 37.7575 91.5234 36.1853V28.7453Z" fill="black"/>
<path fill-rule="evenodd" clip-rule="evenodd" d="M97.0236 22.8983L97.0834 26.7298C97.0921 27.282 96.6514 27.7367 96.0992 27.7453C95.547 27.7539 95.0923 27.3133 95.0837 26.761L95.0234 22.9054C95.0234 20.5131 96.9713 18.5654 99.3636 18.5654C101.753 18.5654 103.699 20.5086 103.704 22.8971L103.763 26.7298C103.772 27.282 103.331 27.7367 102.779 27.7453C102.227 27.7539 101.772 27.3133 101.764 26.761L101.703 22.9054C101.703 21.6177 100.651 20.5654 99.3636 20.5654C98.0782 20.5654 97.0274 21.6138 97.0236 22.8983Z" fill="black"/>
<path d="M47.3327 23.3335V30.0002M60.666 20.0002V30.0002M53.9993 13.3335V30.0002M67.3327 11.3335V28.6668C67.3327 31.4671 67.3327 32.8672 66.7877 33.9368C66.3083 34.8776 65.5434 35.6425 64.6026 36.1219C63.5331 36.6668 62.1329 36.6668 59.3327 36.6668H48.666C45.8658 36.6668 44.4656 36.6668 43.3961 36.1219C42.4553 35.6425 41.6903 34.8776 41.211 33.9368C40.666 32.8672 40.666 31.4671 40.666 28.6668V11.3335C40.666 8.53323 40.666 7.1331 41.211 6.06354C41.6903 5.12273 42.4553 4.35783 43.3961 3.87846C44.4656 3.3335 45.8658 3.3335 48.666 3.3335H59.3327C62.1329 3.3335 63.5331 3.3335 64.6026 3.87846C65.5434 4.35783 66.3083 5.12273 66.7877 6.06354C67.3327 7.1331 67.3327 8.53323 67.3327 11.3335Z" stroke="black" stroke-width="2" stroke-linecap="round" stroke-linejoin="round"/>
<path d="M14.9993 19.1668L18.3327 22.5001L25.8327 15.0001M33.3327 20.0001C33.3327 28.1809 24.4094 34.1308 21.1627 36.0249C20.7937 36.2402 20.6092 36.3478 20.3488 36.4036C20.1468 36.447 19.8519 36.447 19.6499 36.4036C19.3895 36.3478 19.205 36.2402 18.836 36.0249C15.5893 34.1308 6.66602 28.1809 6.66602 20.0001V12.0294C6.66602 10.6969 6.66602 10.0307 6.88395 9.45795C7.07647 8.95201 7.38932 8.50057 7.79545 8.14266C8.25517 7.73751 8.87901 7.50357 10.1267 7.03569L19.063 3.68457C19.4095 3.55463 19.5828 3.48966 19.761 3.46391C19.9191 3.44107 20.0796 3.44107 20.2377 3.46391C20.4159 3.48966 20.5892 3.55463 20.9357 3.68457L29.872 7.03569C31.1197 7.50357 31.7435 7.73751 32.2033 8.14266C32.6094 8.50057 32.9222 8.95201 33.1147 9.45795C33.3327 10.0307 33.3327 10.6969 33.3327 12.0294V20.0001Z" stroke="black" stroke-width="2" stroke-linecap="round" stroke-linejoin="round"/>
<circle cx="16.9226" cy="16.9226" r="15.9226" transform="matrix(-1 0 0 1 144.846 3)" stroke="black" stroke-width="2"/>
<path d="M132.926 19.1504C133.478 19.1504 133.926 19.5981 133.926 20.1504C133.926 20.7027 133.478 21.1504 132.926 21.1504V19.1504ZM121.891 20.8575C121.5 20.467 121.5 19.8338 121.891 19.4433L128.255 13.0793C128.645 12.6888 129.278 12.6888 129.669 13.0793C130.059 13.4698 130.059 14.103 129.669 14.4935L124.012 20.1504L129.669 25.8072C130.059 26.1978 130.059 26.8309 129.669 27.2215C129.278 27.612 128.645 27.612 128.255 27.2215L121.891 20.8575ZM132.926 21.1504H122.598V19.1504H132.926V21.1504Z" fill="black"/>
<circle cx="169.208" cy="19.9226" r="16.9226" fill="black"/>
<path d="M164.205 19.1504C163.653 19.1504 163.205 19.5981 163.205 20.1504C163.205 20.7027 163.653 21.1504 164.205 21.1504V19.1504ZM175.24 20.8575C175.631 20.467 175.631 19.8338 175.24 19.4433L168.876 13.0793C168.486 12.6888 167.853 12.6888 167.462 13.0793C167.072 13.4698 167.072 14.103 167.462 14.4935L173.119 20.1504L167.462 25.8072C167.072 26.1978 167.072 26.8309 167.462 27.2215C167.853 27.612 168.486 27.612 168.876 27.2215L175.24 20.8575ZM164.205 21.1504H174.533V19.1504H164.205V21.1504Z" fill="white"/>
</svg>
