<svg xmlns="http://www.w3.org/2000/svg" xmlns:xlink="http://www.w3.org/1999/xlink" width="355.555" height="400" viewBox="0 0 355.555 400">
  <defs>
    <clipPath id="clip-path">
      <rect id="Rectangle_30139" data-name="Rectangle 30139" width="355.555" height="400"/>
    </clipPath>
  </defs>
  <g id="Unity" clip-path="url(#clip-path)">
    <path id="Path_92217" data-name="Path 92217" d="M193.32,71.564l63.58,36.548a3.559,3.559,0,0,1,0,6.126L181.352,157.7a7.039,7.039,0,0,1-7.106,0L98.7,114.238a3.544,3.544,0,0,1,0-6.126l63.539-36.548V0L0,93.295v186.59l62.21-35.763v-73.1a3.576,3.576,0,0,1,5.319-3.063l75.549,43.46a7.081,7.081,0,0,1,3.574,6.126v86.88a3.576,3.576,0,0,1-5.319,3.062l-63.581-36.55L15.542,306.7,177.778,400,340.012,306.7,277.8,270.942l-63.582,36.55a3.577,3.577,0,0,1-5.319-3.062V217.55a7.077,7.077,0,0,1,3.574-6.126l75.55-43.46a3.561,3.561,0,0,1,5.318,3.063v73.1l62.21,35.763V93.295L193.32,0Z"/>
  </g>
</svg>
